<svg width="24" height="24" viewBox="0 0 24 24" fill="none" xmlns="http://www.w3.org/2000/svg">
<path d="M6.68127 8.63177C6.8715 6.57408 8.59781 5 10.6643 5H16.7131C19.0312 5 20.8639 6.96417 20.7035 9.27669L20.4955 12.2767C20.3501 14.3734 18.6069 16 16.5051 16H10.3869C8.03238 16 6.18716 13.9763 6.40392 11.6318L6.68127 8.63177Z" fill="white"/>
<path fill-rule="evenodd" clip-rule="evenodd" d="M7.64774 12.3371C8.11004 12.2555 8.41867 11.8146 8.33709 11.3523L7.2745 5.33093C6.94984 3.49118 5.35126 2.15 3.48308 2.15H3.00002C2.53058 2.15 2.15002 2.53056 2.15002 3C2.15002 3.46944 2.53058 3.85 3.00002 3.85H3.48308C4.52635 3.85 5.41906 4.59897 5.60037 5.62636L6.66296 11.6477C6.74454 12.11 7.18544 12.4186 7.64774 12.3371Z" fill="white"/>
<path d="M11 20C11 21.1046 10.1046 22 9 22C7.89543 22 7 21.1046 7 20C7 18.8954 7.89543 18 9 18C10.1046 18 11 18.8954 11 20Z" fill="white"/>
<path d="M20 20C20 21.1046 19.1046 22 18 22C16.8954 22 16 21.1046 16 20C16 18.8954 16.8954 18 18 18C19.1046 18 20 18.8954 20 20Z" fill="white"/>
</svg>
