<svg width="24" height="24" viewBox="0 0 24 24" fill="none" xmlns="http://www.w3.org/2000/svg">
<path fill-rule="evenodd" clip-rule="evenodd" d="M5.83485 8.55352C6.06551 6.05856 8.15866 4.14999 10.6643 4.14999H16.7131C19.5238 4.14999 21.7459 6.53155 21.5515 9.33547L21.3435 12.3355C21.1672 14.8778 19.0535 16.85 16.5051 16.85H10.3869C7.53201 16.85 5.29469 14.3963 5.5575 11.5535L5.83485 8.55352ZM10.6643 5.84999C9.03691 5.84999 7.67744 7.08958 7.52763 8.71001L7.25028 11.71C7.07959 13.5564 8.53269 15.15 10.3869 15.15H16.5051C18.1602 15.15 19.5331 13.8691 19.6475 12.2179L19.8556 9.21788C19.9818 7.39678 18.5386 5.84999 16.7131 5.84999H10.6643Z" fill="white"/>
<path fill-rule="evenodd" clip-rule="evenodd" d="M6.56058 10.8478C7.02883 10.8144 7.38131 10.4077 7.34786 9.93944L7.04688 5.7257C6.90297 3.71097 5.22653 2.15 3.20667 2.15H3.00002C2.53058 2.15 2.15002 2.53056 2.15002 3C2.15002 3.46944 2.53058 3.85 3.00002 3.85H3.20667C4.33464 3.85 5.27084 4.72171 5.3512 5.84682L5.65218 10.0606C5.68563 10.5288 6.09234 10.8813 6.56058 10.8478Z" fill="white"/>
<path d="M11 20C11 21.1046 10.1046 22 9 22C7.89543 22 7 21.1046 7 20C7 18.8954 7.89543 18 9 18C10.1046 18 11 18.8954 11 20Z" fill="white"/>
<path d="M20 20C20 21.1046 19.1046 22 18 22C16.8954 22 16 21.1046 16 20C16 18.8954 16.8954 18 18 18C19.1046 18 20 18.8954 20 20Z" fill="white"/>
</svg>
